# xmcd CD database file
#
# Track frame offsets:
#	150
#	16520
#	34335
#	56862
#	71515
#	85847
#	102165
#	118420
#	136702
#	156470
#
# Disc length: 2292 seconds
#
# Revision: 3
# Processed by: cddbd v1.5.1PL0 Copyright (c) Steve Scherf et al.
# Submitted via: CDex 1.50
#
DISCID=8308f20a
DTITLE=J. Geils Band - Flashback-Best Of J. Geils Band
DYEAR=1996
DGENRE=Blues
TTITLE0=Love Stinks
TTITLE1=Freeze-Frame
TTITLE2=Flame Thrower
TTITLE3=Just Can't Wait
TTITLE4=I Do
TTITLE5=Centerfold
TTITLE6=Come Back
TTITLE7=Wild Man
TTITLE8=One Last Kiss
TTITLE9=Land Of A Thousand Dances
EXTD=YEAR: 1996
EXTT0=
EXTT1=
EXTT2=
EXTT3=
EXTT4=
EXTT5=
EXTT6=
EXTT7=
EXTT8=
EXTT9=
PLAYORDER=
